<svg width="512" height="512" viewBox="0 0 512 512" fill="none" xmlns="http://www.w3.org/2000/svg">
    <circle cx="256" cy="256" r="250" fill="#1DA1F2"/>
    <path d="M403.575 231.863C355.387 231.84 307.2 231.852 259.013 231.857C259.019 251.844 258.989 271.831 259.024 291.811C286.931 291.805 314.838 291.799 342.739 291.811C339.505 310.964 328.123 328.479 311.982 339.261C301.835 346.083 290.178 350.512 278.159 352.617C266.063 354.681 253.564 354.945 241.498 352.503C229.228 350.054 217.515 344.942 207.297 337.736C190.959 326.257 178.49 309.463 172.088 290.562C165.541 271.338 165.493 249.947 172.118 230.741C176.714 217.204 184.364 204.7 194.414 194.524C206.811 181.833 222.927 172.761 240.291 169.041C255.16 165.867 270.838 166.473 285.395 170.876C297.768 174.633 309.174 181.413 318.516 190.335C327.961 180.945 337.357 171.5 346.784 162.092C351.728 157.028 356.924 152.186 361.712 146.984C347.396 133.735 330.613 123.085 312.276 116.353C279.263 104.203 242.032 103.945 208.797 115.448C171.343 128.27 139.452 156.279 121.77 191.681C115.614 203.879 111.12 216.899 108.42 230.292C101.627 263.658 106.362 299.234 121.752 329.625C131.754 349.461 146.095 367.096 163.49 380.92C179.9 394.007 199.029 403.673 219.309 409.068C244.9 415.932 272.141 415.776 297.9 409.914C321.181 404.556 343.208 393.431 360.794 377.194C379.383 360.112 392.643 337.605 399.663 313.418C407.32 287.036 408.376 258.87 403.575 231.863Z"
          fill="white"/>
</svg>
