<svg width="512" height="512" viewBox="0 0 512 512" fill="none" xmlns="http://www.w3.org/2000/svg">
    <g clip-path="url(#clip0_407_2)">
        <g clip-path="url(#clip1_407_2)">
            <circle cx="256" cy="256" r="185" fill="white"/>
            <path d="M256 0C205.368 0 155.873 15.0141 113.774 43.1438C71.6752 71.2734 38.863 111.255 19.487 158.033C0.110921 204.811 -4.95873 256.284 4.91908 305.943C14.7969 355.602 39.1785 401.217 74.9808 437.019C110.783 472.822 156.398 497.203 206.057 507.081C255.716 516.959 307.189 511.889 353.967 492.513C400.745 473.137 440.727 440.325 468.856 398.226C496.986 356.127 512 306.632 512 256C512 188.105 485.029 122.99 437.019 74.9807C389.01 26.9713 323.896 0 256 0ZM188.416 122.112L342.784 211.2L301.824 252.16L171.264 121.6C173.939 120.25 176.91 119.589 179.905 119.678C182.901 119.768 185.826 120.604 188.416 122.112ZM161.152 374.08V137.92C161.139 135.402 161.656 132.909 162.671 130.604C163.685 128.3 165.174 126.235 167.04 124.544L298.24 256L166.784 387.264C164.988 385.572 163.561 383.528 162.592 381.26C161.623 378.991 161.133 376.547 161.152 374.08ZM188.48 389.824C185.842 391.421 182.838 392.313 179.755 392.414C176.673 392.514 173.617 391.821 170.88 390.4L301.824 259.264L343.104 300.8L188.48 389.824ZM393.28 271.744L347.904 297.984L305.344 256L347.264 214.08L393.024 240.512C395.726 242.129 397.962 244.42 399.512 247.16C401.062 249.901 401.874 252.997 401.867 256.146C401.861 259.295 401.036 262.388 399.475 265.122C397.914 267.857 395.669 270.138 392.96 271.744H393.28Z"
                  fill="#1DA1F2"/>
        </g>
    </g>
    <defs>
        <clipPath id="clip0_407_2">
            <rect width="512" height="512" fill="white"/>
        </clipPath>
        <clipPath id="clip1_407_2">
            <rect width="512" height="512" fill="white"/>
        </clipPath>
    </defs>
</svg>
