<svg xmlns="http://www.w3.org/2000/svg" xml:space="preserve"
     style="fill-rule:evenodd;clip-rule:evenodd;stroke-linejoin:round;stroke-miterlimit:2" viewBox="0 0 512 512"><circle cx="256" cy="256" r="256" style="fill:#1da1f2"/>
    <path d="M209 391c114 0 176-94 176-176v-8c12-8 22-19 30-32-11 5-22 9-35 10 13-7 23-19 27-34-12 7-25 12-39 15a62 62 0 0 0-105 56c-51-2-97-27-127-64a62 62 0 0 0 19 82c-10 0-20-3-28-8v1c0 30 21 55 50 61a62 62 0 0 1-28 1c7 24 30 42 57 43a124 124 0 0 1-91 25c27 18 59 28 94 28"
          style="fill:#fff;fill-rule:nonzero"/></svg>