<svg width="512" height="512" viewBox="0 0 512 512" fill="none" xmlns="http://www.w3.org/2000/svg">
    <circle cx="256" cy="256" r="250" fill="#1DA1F2"/>
    <path d="M256 419.781C346.345 419.781 419.781 346.345 419.781 256C419.781 165.655 346.345 92.2188 256 92.2188C165.655 92.2188 92.2188 165.655 92.2188 256C92.2188 346.345 165.655 419.781 256 419.781ZM194.994 321.942C201.975 346.477 213.214 370.303 228.295 391.97C187.563 383.799 153.463 357.653 134.075 322.425L194.994 321.942ZM214.839 297.044C209.327 269.389 209.328 241.05 214.838 213.641H293.509C299.018 241.034 299.031 269.129 294 296.543L214.839 297.044ZM287.448 321.428C280.17 343.997 269.077 365.641 254.164 385.522C239.248 365.873 228.166 344.46 221.12 321.91L287.448 321.428ZM313.371 321.136L378.751 320.649C358.99 358.166 322.596 385.398 279.458 392.889C295.064 370.682 306.369 346.483 313.371 321.136ZM394.906 256C394.906 269.873 392.758 283.28 389.145 295.761L319.185 296.255C323.876 268.86 323.633 241.024 318.682 213.641H388.159C392.501 226.898 394.906 241.329 394.906 256ZM312.816 188.766C305.598 164.425 294.537 140.781 279.419 119.089C321.774 126.289 357.429 152.512 377.39 188.766H312.816ZM254.173 126.472C268.817 145.828 279.66 166.73 286.915 188.766H221.432C228.687 166.73 239.53 145.828 254.173 126.472ZM134.622 188.766C153.996 153.83 187.837 128.17 228.304 120.032C213.484 141.388 202.484 164.506 195.516 188.766H134.622ZM123.841 213.641H189.669C184.722 241.307 184.719 269.416 189.431 297.072L123.577 297.566C119.257 284.357 117.094 270.427 117.094 256C117.094 241.329 119.499 226.898 123.841 213.641Z"
          fill="white" stroke="white" stroke-width="4"/>
</svg>
