<svg width="512" height="512" viewBox="0 0 512 512" fill="none" xmlns="http://www.w3.org/2000/svg">
    <g clip-path="url(#clip0_404_2)">
        <path d="M154.406 409C130.662 409 112.006 402.216 98.4376 388.648C84.8696 375.08 78.0856 356.424 78.0856 332.68V233.04H16.6056V175.8H78.0856V110.08H141.686V175.8H228.606V233.04H141.686V332.68C141.686 345.4 148.046 351.76 160.766 351.76H224.366V409H154.406ZM289.92 485.32V425.96H357.76C369.349 425.96 378.253 422.709 384.472 416.208C390.691 409.989 393.8 401.227 393.8 389.92V235.16H302.64V175.8H457.4V392.04C457.4 420.872 448.92 443.627 431.96 460.304C415 476.981 391.821 485.32 362.424 485.32H289.92ZM423.48 138.912C411.891 138.912 402.563 135.944 395.496 130.008C388.712 124.072 385.32 116.016 385.32 105.84C385.32 95.664 388.712 87.608 395.496 81.672C402.563 75.736 411.891 72.768 423.48 72.768C435.069 72.768 444.256 75.736 451.04 81.672C458.107 87.608 461.64 95.664 461.64 105.84C461.64 116.016 458.107 124.072 451.04 130.008C444.256 135.944 435.069 138.912 423.48 138.912Z"
              fill="white"/>
    </g>
    <defs>
        <clipPath id="clip0_404_2">
            <rect width="512" height="512" fill="white"/>
        </clipPath>
    </defs>
</svg>
